<svg xmlns="http://www.w3.org/2000/svg" width="22" height="22" viewBox="0 0 22 22">
  <path id="discount-fill" d="M11.541,4.6a3.3,3.3,0,0,1,4.916,0l.77.86a1.1,1.1,0,0,0,.881.365l1.155-.064a3.3,3.3,0,0,1,3.475,3.475l-.064,1.155a1.1,1.1,0,0,0,.365.88l.861.77a3.3,3.3,0,0,1,0,4.917l-.861.77a1.1,1.1,0,0,0-.365.881l.064,1.155a3.3,3.3,0,0,1-3.475,3.475l-1.155-.064a1.1,1.1,0,0,0-.88.365l-.77.861a3.3,3.3,0,0,1-4.917,0l-.77-.861a1.1,1.1,0,0,0-.881-.365l-1.155.064A3.3,3.3,0,0,1,5.26,19.763l.064-1.155a1.1,1.1,0,0,0-.365-.88l-.86-.77a3.3,3.3,0,0,1,0-4.917l.86-.77a1.1,1.1,0,0,0,.365-.881L5.26,9.235A3.3,3.3,0,0,1,8.736,5.76l1.155.064a1.1,1.1,0,0,0,.88-.365l.77-.86Zm6.535,5.824a1.1,1.1,0,0,1,0,1.555l-6.6,6.6a1.1,1.1,0,0,1-1.555-1.555l6.6-6.6a1.1,1.1,0,0,1,1.555,0ZM11.25,10.1A1.65,1.65,0,0,0,9.6,11.75v.011a1.65,1.65,0,0,0,1.65,1.65h.011a1.65,1.65,0,0,0,1.65-1.65V11.75a1.65,1.65,0,0,0-1.65-1.65Zm5.5,5.5a1.65,1.65,0,0,0-1.65,1.65v.011a1.65,1.65,0,0,0,1.65,1.65h.011a1.65,1.65,0,0,0,1.65-1.65v-.011a1.65,1.65,0,0,0-1.65-1.65Z" transform="translate(-3 -3.5)" fill-rule="evenodd"/>
</svg>
