<svg xmlns="http://www.w3.org/2000/svg" width="22" height="13.291" viewBox="0 0 22 13.291">
  <path id="users-group" d="M11,8.5a3.208,3.208,0,1,1-2.269.94A3.208,3.208,0,0,1,11,8.5ZM4.583,10.792a2.706,2.706,0,0,1,1.4.385,5.075,5.075,0,0,0,1.036,3.63,2.748,2.748,0,1,1-2.438-4.015Zm12.833,0a2.75,2.75,0,1,1-2.438,4.015,5.075,5.075,0,0,0,1.036-3.63A2.706,2.706,0,0,1,17.417,10.792Zm-12.375,9.4c0-1.9,2.668-3.438,5.958-3.438s5.958,1.54,5.958,3.438v1.6H5.042ZM0,21.792V20.417c0-1.274,1.733-2.347,4.079-2.658a3.707,3.707,0,0,0-.871,2.429v1.6Zm22,0H18.792v-1.6a3.707,3.707,0,0,0-.871-2.429C20.267,18.07,22,19.142,22,20.417Z" transform="translate(0 -8.5)"/>
</svg>
